<mxfile host="app.diagrams.net" modified="2022-07-19T07:07:43.429Z" agent="5.0 (Windows NT 10.0; Win64; x64) AppleWebKit/537.36 (KHTML, like Gecko) Chrome/103.0.0.0 Safari/537.36" etag="26qCEB4JCBse6dV1riI1" version="20.1.1" type="github">
  <diagram id="aeV9FAUAG6BqjZSS4Ptb" name="Page-1">
    <mxGraphModel dx="4498" dy="1524" grid="1" gridSize="10" guides="1" tooltips="1" connect="1" arrows="1" fold="1" page="1" pageScale="1" pageWidth="827" pageHeight="1169" math="0" shadow="0">
      <root>
        <mxCell id="0" />
        <mxCell id="1" parent="0" />
        <mxCell id="7XwiVhsKSBdulnQbp7iB-1" value="&lt;b&gt;&lt;font style=&quot;font-size: 14px;&quot;&gt;M.Robet BURDET&lt;/font&gt;&lt;/b&gt;&lt;br&gt;&lt;i&gt;Président&lt;/i&gt;" style="rounded=0;whiteSpace=wrap;html=1;fillColor=#1ba1e2;strokeColor=#006EAF;fontColor=#ffffff;" parent="1" vertex="1">
          <mxGeometry x="320" width="200" height="40" as="geometry" />
        </mxCell>
        <mxCell id="7XwiVhsKSBdulnQbp7iB-2" value="&lt;span style=&quot;font-size: 14px;&quot;&gt;&lt;b&gt;M.Christophe GUERIN&lt;br&gt;&lt;/b&gt;&lt;/span&gt;&lt;i&gt;Directeur Générale&lt;br&gt;&lt;/i&gt;&amp;amp;Directeur Administratif" style="rounded=0;whiteSpace=wrap;html=1;fillColor=#1ba1e2;strokeColor=#006EAF;fontColor=#ffffff;" parent="1" vertex="1">
          <mxGeometry x="320" y="100" width="200" height="60" as="geometry" />
        </mxCell>
        <mxCell id="7XwiVhsKSBdulnQbp7iB-3" value="&lt;span style=&quot;font-size: 14px;&quot;&gt;Conseil d&#39;Administration&lt;/span&gt;" style="rounded=0;whiteSpace=wrap;html=1;fillColor=#1ba1e2;strokeColor=#006EAF;fontColor=#ffffff;" parent="1" vertex="1">
          <mxGeometry x="320" y="50" width="200" height="40" as="geometry" />
        </mxCell>
        <mxCell id="7XwiVhsKSBdulnQbp7iB-5" value="&lt;font color=&quot;#ffffff&quot;&gt;&lt;span style=&quot;font-size: 22px;&quot;&gt;&lt;b&gt;COMMERCIAL /RECEPTIF /TECHNIQUE&lt;/b&gt;&lt;/span&gt;&lt;/font&gt;" style="rounded=0;whiteSpace=wrap;html=1;fontSize=14;fillColor=#FF8000;fontColor=#000000;strokeColor=#B09500;" parent="1" vertex="1">
          <mxGeometry x="-560" y="180" width="680" height="40" as="geometry" />
        </mxCell>
        <mxCell id="7XwiVhsKSBdulnQbp7iB-6" value="&lt;b&gt;&lt;font style=&quot;font-size: 22px;&quot;&gt;JEUX&lt;/font&gt;&lt;/b&gt;" style="rounded=0;whiteSpace=wrap;html=1;fontSize=14;fillColor=#FFFF33;fontColor=#000000;strokeColor=#B09500;" parent="1" vertex="1">
          <mxGeometry x="-1120" y="180" width="520" height="40" as="geometry" />
        </mxCell>
        <mxCell id="7XwiVhsKSBdulnQbp7iB-7" value="&lt;b&gt;&lt;font style=&quot;font-size: 22px;&quot;&gt;MARKETING /ACCUEIL&lt;/font&gt;&lt;/b&gt;" style="rounded=0;whiteSpace=wrap;html=1;fontSize=14;fillColor=#00CC00;fontColor=#FFFFFF;strokeColor=#B09500;" parent="1" vertex="1">
          <mxGeometry x="160" y="180" width="520" height="40" as="geometry" />
        </mxCell>
        <mxCell id="7XwiVhsKSBdulnQbp7iB-8" value="&lt;b&gt;&lt;font style=&quot;font-size: 22px;&quot;&gt;ADMINISTRATION GENERALE&lt;/font&gt;&lt;/b&gt;" style="rounded=0;whiteSpace=wrap;html=1;fontSize=14;fillColor=#6666FF;fontColor=#FFFFFF;strokeColor=#B09500;" parent="1" vertex="1">
          <mxGeometry x="720" y="180" width="400" height="40" as="geometry" />
        </mxCell>
        <mxCell id="7XwiVhsKSBdulnQbp7iB-9" value="&lt;span style=&quot;font-size: 22px;&quot;&gt;&lt;b&gt;SERVICE INFORMATIQUE&lt;/b&gt;&lt;/span&gt;" style="rounded=0;whiteSpace=wrap;html=1;fontSize=14;fillColor=#CC0000;fontColor=#FFFFFF;strokeColor=#B09500;" parent="1" vertex="1">
          <mxGeometry x="1160" y="180" width="400" height="40" as="geometry" />
        </mxCell>
        <mxCell id="7XwiVhsKSBdulnQbp7iB-10" value="&lt;font color=&quot;#000000&quot;&gt;Boris BRICHET&lt;br&gt;&lt;font style=&quot;font-size: 18px;&quot;&gt;&lt;i&gt;Directeur des Jeux&lt;/i&gt;&lt;/font&gt;&lt;br&gt;&lt;/font&gt;" style="rounded=0;whiteSpace=wrap;html=1;fontSize=22;fontColor=#FFFFFF;fillColor=#E6E6E6;gradientColor=none;" parent="1" vertex="1">
          <mxGeometry x="-1120" y="240" width="520" height="80" as="geometry" />
        </mxCell>
        <mxCell id="7XwiVhsKSBdulnQbp7iB-11" value="&lt;font color=&quot;#000000&quot;&gt;&lt;b&gt;&lt;font style=&quot;font-size: 37px;&quot;&gt;MAS&lt;/font&gt;&lt;/b&gt;&lt;br&gt;&lt;/font&gt;" style="rounded=0;whiteSpace=wrap;html=1;fontSize=22;fontColor=#FFFFFF;fillColor=#B3B3B3;gradientColor=none;" parent="1" vertex="1">
          <mxGeometry x="-1120" y="340" width="240" height="80" as="geometry" />
        </mxCell>
        <mxCell id="7XwiVhsKSBdulnQbp7iB-12" value="&lt;font color=&quot;#000000&quot;&gt;&lt;b&gt;&lt;font style=&quot;font-size: 27px;&quot;&gt;JEUX TRAD&lt;/font&gt;&lt;/b&gt;&lt;br&gt;&lt;/font&gt;" style="rounded=0;whiteSpace=wrap;html=1;fontSize=22;fontColor=#FFFFFF;fillColor=#B3B3B3;gradientColor=none;" parent="1" vertex="1">
          <mxGeometry x="-840" y="340" width="240" height="80" as="geometry" />
        </mxCell>
        <mxCell id="7XwiVhsKSBdulnQbp7iB-13" value="&lt;font color=&quot;#000000&quot;&gt;&lt;b&gt;&lt;font style=&quot;font-size: 34px;&quot;&gt;MCD&lt;/font&gt;&lt;/b&gt;&lt;br&gt;- Stéphane MARCHAL&lt;br&gt;- Tony DUPUIS&lt;br&gt;- Christian JOFFIN&lt;br&gt;- Fabrice TARTARIN&amp;nbsp;&lt;br&gt;&lt;/font&gt;" style="rounded=0;whiteSpace=wrap;html=1;fontSize=22;fontColor=#FFFFFF;fillColor=#CCCCCC;gradientColor=none;" parent="1" vertex="1">
          <mxGeometry x="-1120" y="440" width="240" height="160" as="geometry" />
        </mxCell>
        <mxCell id="7XwiVhsKSBdulnQbp7iB-14" value="&lt;font color=&quot;#000000&quot;&gt;&lt;font style=&quot;font-size: 25px;&quot;&gt;Employés MAS&lt;/font&gt;&lt;br&gt;&lt;/font&gt;" style="rounded=0;whiteSpace=wrap;html=1;fontSize=22;fontColor=#FFFFFF;fillColor=#E6E6E6;gradientColor=none;" parent="1" vertex="1">
          <mxGeometry x="-1120" y="620" width="240" height="80" as="geometry" />
        </mxCell>
        <mxCell id="bwLAh_O6zxerECzSXS2s-1" value="&lt;font color=&quot;#000000&quot;&gt;&lt;span style=&quot;font-size: 34px;&quot;&gt;&lt;b style=&quot;font-size: 20px;&quot;&gt;Pierre DELPORTE&lt;br&gt;&lt;/b&gt;&lt;/span&gt;&lt;i&gt;&lt;font style=&quot;font-size: 15px;&quot;&gt;Dir. Jeux de Table&lt;/font&gt;&lt;/i&gt;&lt;br&gt;&lt;/font&gt;" style="rounded=0;whiteSpace=wrap;html=1;fontSize=22;fontColor=#FFFFFF;fillColor=#CCCCCC;gradientColor=none;" vertex="1" parent="1">
          <mxGeometry x="-840" y="440" width="240" height="80" as="geometry" />
        </mxCell>
        <mxCell id="bwLAh_O6zxerECzSXS2s-2" value="&lt;font color=&quot;#000000&quot;&gt;&lt;span style=&quot;font-size: 20px;&quot;&gt;&lt;b&gt;Employés JEUX&lt;/b&gt;&lt;/span&gt;&lt;br&gt;&lt;/font&gt;" style="rounded=0;whiteSpace=wrap;html=1;fontSize=22;fontColor=#FFFFFF;fillColor=#CCCCCC;gradientColor=none;" vertex="1" parent="1">
          <mxGeometry x="-840" y="540" width="240" height="40" as="geometry" />
        </mxCell>
        <mxCell id="bwLAh_O6zxerECzSXS2s-3" value="&lt;font style=&quot;font-size: 19px;&quot; color=&quot;#000000&quot;&gt;&lt;font style=&quot;font-size: 25px;&quot;&gt;&lt;b&gt;VIDEO&lt;/b&gt;&lt;br&gt;&lt;/font&gt;-Jean-Luc CUNAT&lt;br&gt;-M-Caroline GRAS&lt;br&gt;-Julie RAYNAUD RICHAD&lt;br&gt;&lt;/font&gt;" style="rounded=0;whiteSpace=wrap;html=1;fontSize=22;fontColor=#FFFFFF;fillColor=#E6E6E6;gradientColor=none;" vertex="1" parent="1">
          <mxGeometry x="-840" y="600" width="240" height="140" as="geometry" />
        </mxCell>
        <mxCell id="bwLAh_O6zxerECzSXS2s-4" value="&lt;font color=&quot;#000000&quot;&gt;Boris BRICHET&lt;br&gt;&lt;font style=&quot;font-size: 18px;&quot;&gt;&lt;i&gt;Directeur des Jeux&lt;/i&gt;&lt;/font&gt;&lt;br&gt;&lt;/font&gt;" style="rounded=0;whiteSpace=wrap;html=1;fontSize=22;fontColor=#FFFFFF;fillColor=#E6E6E6;gradientColor=none;" vertex="1" parent="1">
          <mxGeometry x="-560" y="240" width="680" height="80" as="geometry" />
        </mxCell>
        <mxCell id="bwLAh_O6zxerECzSXS2s-5" value="&lt;font color=&quot;#000000&quot;&gt;&lt;b&gt;&lt;font style=&quot;font-size: 28px;&quot;&gt;GERANCES&lt;/font&gt;&lt;/b&gt;&lt;br&gt;&lt;/font&gt;" style="rounded=0;whiteSpace=wrap;html=1;fontSize=22;fontColor=#FFFFFF;fillColor=#B3B3B3;gradientColor=none;" vertex="1" parent="1">
          <mxGeometry x="-560" y="340" width="200" height="80" as="geometry" />
        </mxCell>
        <mxCell id="bwLAh_O6zxerECzSXS2s-6" value="&lt;font color=&quot;#000000&quot;&gt;&lt;span style=&quot;font-size: 27px;&quot;&gt;&lt;b&gt;SERVICE TECHNIQUE&lt;/b&gt;&lt;/span&gt;&lt;br&gt;&lt;/font&gt;" style="rounded=0;whiteSpace=wrap;html=1;fontSize=22;fontColor=#FFFFFF;fillColor=#B3B3B3;gradientColor=none;" vertex="1" parent="1">
          <mxGeometry x="-320" y="340" width="200" height="80" as="geometry" />
        </mxCell>
        <mxCell id="bwLAh_O6zxerECzSXS2s-7" value="&lt;font color=&quot;#000000&quot;&gt;&lt;span style=&quot;font-size: 20px;&quot;&gt;Bar &amp;amp;&lt;br&gt;&lt;/span&gt;Restaurant&lt;br&gt;Brasserie du&amp;nbsp;&lt;br&gt;Casino&lt;br&gt;&lt;/font&gt;" style="rounded=0;whiteSpace=wrap;html=1;fontSize=22;fontColor=#FFFFFF;fillColor=#CCCCCC;gradientColor=none;" vertex="1" parent="1">
          <mxGeometry x="-560" y="440" width="200" height="100" as="geometry" />
        </mxCell>
        <mxCell id="bwLAh_O6zxerECzSXS2s-8" value="&lt;font color=&quot;#000000&quot;&gt;&lt;font style=&quot;font-size: 25px;&quot;&gt;Bar à Vins&amp;nbsp;&lt;br&gt;&lt;/font&gt;L&#39;Insolite&lt;br&gt;&lt;/font&gt;" style="rounded=0;whiteSpace=wrap;html=1;fontSize=22;fontColor=#FFFFFF;fillColor=#E6E6E6;gradientColor=none;" vertex="1" parent="1">
          <mxGeometry x="-560" y="560" width="200" height="80" as="geometry" />
        </mxCell>
        <mxCell id="bwLAh_O6zxerECzSXS2s-9" value="&lt;font color=&quot;#000000&quot;&gt;&lt;span style=&quot;font-size: 20px;&quot;&gt;&lt;b&gt;Sébastien FELIX&lt;br&gt;&lt;/b&gt;&lt;/span&gt;&lt;font style=&quot;font-size: 17px;&quot;&gt;&lt;i&gt;Resp. Technique&lt;/i&gt;&lt;/font&gt;&lt;br&gt;&lt;/font&gt;" style="rounded=0;whiteSpace=wrap;html=1;fontSize=22;fontColor=#FFFFFF;fillColor=#CCCCCC;gradientColor=none;" vertex="1" parent="1">
          <mxGeometry x="-320" y="440" width="200" height="80" as="geometry" />
        </mxCell>
        <mxCell id="bwLAh_O6zxerECzSXS2s-10" value="&lt;font style=&quot;font-size: 16px;&quot; color=&quot;#000000&quot;&gt;&lt;span style=&quot;font-size: 20px;&quot;&gt;&lt;b&gt;Techniciens:&lt;br&gt;&lt;/b&gt;&lt;/span&gt;-Jorge CARDOSO&lt;br&gt;-Atelier&lt;br&gt;&lt;/font&gt;" style="rounded=0;whiteSpace=wrap;html=1;fontSize=22;fontColor=#FFFFFF;fillColor=#CCCCCC;gradientColor=none;" vertex="1" parent="1">
          <mxGeometry x="-320" y="540" width="200" height="80" as="geometry" />
        </mxCell>
        <mxCell id="bwLAh_O6zxerECzSXS2s-11" value="&lt;font style=&quot;&quot; color=&quot;#000000&quot;&gt;&lt;b style=&quot;&quot;&gt;&lt;font style=&quot;font-size: 22px;&quot;&gt;FACTOTUM&lt;/font&gt;&lt;br&gt;&lt;/b&gt;&lt;font style=&quot;font-size: 17px;&quot;&gt;Alexis GREBEAUVAL&lt;/font&gt;&lt;br&gt;&lt;/font&gt;" style="rounded=0;whiteSpace=wrap;html=1;fontSize=22;fontColor=#FFFFFF;fillColor=#E6E6E6;gradientColor=none;" vertex="1" parent="1">
          <mxGeometry x="-320" y="640" width="200" height="60" as="geometry" />
        </mxCell>
        <mxCell id="bwLAh_O6zxerECzSXS2s-12" value="&lt;font color=&quot;#000000&quot;&gt;&lt;b&gt;&lt;font style=&quot;font-size: 27px;&quot;&gt;COMMERCIAL RECEPTIF&lt;/font&gt;&lt;/b&gt;&lt;br&gt;&lt;/font&gt;" style="rounded=0;whiteSpace=wrap;html=1;fontSize=22;fontColor=#FFFFFF;fillColor=#B3B3B3;gradientColor=none;" vertex="1" parent="1">
          <mxGeometry x="-80" y="340" width="200" height="80" as="geometry" />
        </mxCell>
        <mxCell id="bwLAh_O6zxerECzSXS2s-13" value="&lt;font style=&quot;&quot; color=&quot;#000000&quot;&gt;&lt;span style=&quot;font-size: 20px;&quot;&gt;&lt;b&gt;-Margaux L&#39;HOSTIE&lt;br&gt;&lt;/b&gt;&lt;/span&gt;&lt;font style=&quot;font-size: 17px;&quot;&gt;Ass. Commercial&lt;/font&gt;&lt;font style=&quot;font-size: 17px;&quot;&gt;e&lt;/font&gt;&lt;br&gt;&lt;/font&gt;" style="rounded=0;whiteSpace=wrap;html=1;fontSize=22;fontColor=#FFFFFF;fillColor=#CCCCCC;gradientColor=none;" vertex="1" parent="1">
          <mxGeometry x="-80" y="440" width="200" height="80" as="geometry" />
        </mxCell>
        <mxCell id="bwLAh_O6zxerECzSXS2s-14" value="&lt;font style=&quot;font-size: 16px;&quot; color=&quot;#000000&quot;&gt;&lt;span style=&quot;font-size: 20px;&quot;&gt;&lt;b&gt;MENAGE&lt;br&gt;&lt;/b&gt;&lt;/span&gt;-Amina BENKALTI&lt;br&gt;-Fatima FARINA&lt;br&gt;-Cristina FERNANDES&lt;br&gt;-Jamila KOURIMI&lt;br&gt;-Laura MENDES&lt;br&gt;&lt;/font&gt;" style="rounded=0;whiteSpace=wrap;html=1;fontSize=22;fontColor=#FFFFFF;fillColor=#CCCCCC;gradientColor=none;" vertex="1" parent="1">
          <mxGeometry x="-80" y="540" width="200" height="160" as="geometry" />
        </mxCell>
        <mxCell id="bwLAh_O6zxerECzSXS2s-15" value="&lt;font style=&quot;&quot; color=&quot;#000000&quot;&gt;&lt;font style=&quot;&quot;&gt;&lt;b style=&quot;&quot;&gt;&lt;font style=&quot;font-size: 22px;&quot;&gt;VEILLEURS&lt;/font&gt;&lt;/b&gt;&lt;br&gt;&lt;/font&gt;&lt;span style=&quot;font-size: 16px;&quot;&gt;-Christophe BELLOT&lt;/span&gt;&lt;br&gt;&lt;span style=&quot;font-size: 16px;&quot;&gt;-Laurent ROUGIER&lt;/span&gt;&lt;br&gt;&lt;/font&gt;" style="rounded=0;whiteSpace=wrap;html=1;fontSize=22;fontColor=#FFFFFF;fillColor=#E6E6E6;gradientColor=none;" vertex="1" parent="1">
          <mxGeometry x="-80" y="720" width="200" height="80" as="geometry" />
        </mxCell>
        <mxCell id="bwLAh_O6zxerECzSXS2s-16" value="&lt;font color=&quot;#000000&quot;&gt;&lt;span style=&quot;font-size: 25px;&quot;&gt;Discothèque&lt;br&gt;&lt;/span&gt;VEGAS CLUB&lt;br&gt;&lt;/font&gt;" style="rounded=0;whiteSpace=wrap;html=1;fontSize=22;fontColor=#FFFFFF;fillColor=#E6E6E6;gradientColor=none;" vertex="1" parent="1">
          <mxGeometry x="-560" y="660" width="200" height="80" as="geometry" />
        </mxCell>
        <mxCell id="bwLAh_O6zxerECzSXS2s-17" value="&lt;font color=&quot;#000000&quot;&gt;Anne-Sophie BALESTRIERE&lt;br&gt;&lt;i&gt;&lt;font style=&quot;font-size: 18px;&quot;&gt;Responsable Marketing et ACCUEIL&lt;/font&gt;&lt;/i&gt;&lt;br&gt;&lt;/font&gt;" style="rounded=0;whiteSpace=wrap;html=1;fontSize=22;fontColor=#FFFFFF;fillColor=#E6E6E6;gradientColor=none;" vertex="1" parent="1">
          <mxGeometry x="160" y="240" width="520" height="80" as="geometry" />
        </mxCell>
      </root>
    </mxGraphModel>
  </diagram>
</mxfile>
